<svg width="900" height="600" xmlns="http://www.w3.org/2000/svg" version="1.1">


 <g>
  <title>Layer 1</title>
  <rect id="svg_1" fill="#000000" height="600" width="900"/>
  <path transform="rotate(90.1574 680.411 97.3288)" stroke="null" id="svg_3" fill="#008037" d="m910.49853,318.12744c-23.22542,-23.84363 -46.45085,-47.79614 -70.80922,-55.63514c-24.35837,-7.839 -49.96298,0.4355 -74.88783,-1.3065c-24.92484,-1.742 -49.28321,-13.39163 -66.16413,-32.00926c-16.88092,-18.61763 -26.17109,-44.09439 -44.52483,-59.11915c-18.24045,-14.91588 -45.65778,-19.37976 -69.90286,-30.37614c-24.35837,-10.99638 -45.65778,-28.52526 -58.34679,-49.75589c-12.68901,-21.23063 -16.88092,-45.94527 -28.43698,-68.9179c-11.55606,-22.97263 -30.47629,-43.98552 -39.53987,-67.82915c-8.95028,-23.73476 -7.93063,-50.19139 -6.91098,-76.64803l459.52348,0l0,441.59716z"/>
  <path stroke="null" id="svg_5" fill="#008037" d="m0,0.56227c28.68065,-2.8105 57.3613,-5.621 80.39796,10.48532c23.03667,16.10632 40.31417,51.12945 57.47648,72.42438c17.16232,21.29493 34.32463,28.96975 64.84821,26.05116c30.52358,-3.02669 74.29325,-16.6468 97.56028,-6.37767c23.26703,10.16103 26.03143,44.2113 39.3927,68.31673c13.36127,24.21352 37.43458,38.48221 40.42935,61.61477c2.87958,23.13256 -15.31938,55.02091 -2.30367,76.85632c12.90053,21.94351 57.01575,33.94217 77.05765,53.83185c20.15708,19.78158 16.24085,47.56228 12.32462,75.23488l-467.18358,0l0,-438.43773z"/>
  <rect transform="rotate(16.7488 391.576 487.931)" stroke="null" id="svg_10" height="455.4385" width="1028.29806" y="260.21173" x="-122.57349" fill="#008037"/>
  <rect transform="rotate(161.855 648.576 436.931)" stroke="null" id="svg_12" height="455.4385" width="1028.29806" y="209.21173" x="134.42651" fill="#008037"/>
  <ellipse ry="70" rx="70" id="svg_13" cy="254" cx="450" fill="#000000"/>
 </g>
</svg>