<svg id="visual" viewBox="0 0 900 600" width="900" height="600" xmlns="http://www.w3.org/2000/svg" xmlns:xlink="http://www.w3.org/1999/xlink" version="1.1"><rect x="0" y="0" width="900" height="600" fill="#000000"></rect><path d="M0 419L129 397L257 422L386 393L514 380L643 446L771 434L900 391L900 601L771 601L643 601L514 601L386 601L257 601L129 601L0 601Z" fill="#212121"></path><path d="M0 477L129 429L257 434L386 403L514 464L643 461L771 422L900 421L900 601L771 601L643 601L514 601L386 601L257 601L129 601L0 601Z" fill="#253827"></path><path d="M0 459L129 468L257 511L386 468L514 509L643 507L771 497L900 437L900 601L771 601L643 601L514 601L386 601L257 601L129 601L0 601Z" fill="#244f2d"></path><path d="M0 524L129 536L257 497L386 517L514 498L643 519L771 539L900 536L900 601L771 601L643 601L514 601L386 601L257 601L129 601L0 601Z" fill="#1d6732"></path><path d="M0 524L129 573L257 573L386 557L514 541L643 533L771 530L900 561L900 601L771 601L643 601L514 601L386 601L257 601L129 601L0 601Z" fill="#008037"></path></svg>