<svg id="visual" viewBox="0 0 900 600" width="900" height="600" xmlns="http://www.w3.org/2000/svg" xmlns:xlink="http://www.w3.org/1999/xlink" version="1.1"><rect x="0" y="0" width="900" height="600" fill="#000000"></rect><path d="M0 381L129 433L257 427L386 387L514 410L643 444L771 411L900 401L900 601L771 601L643 601L514 601L386 601L257 601L129 601L0 601Z" fill="#212121"></path><path d="M0 405L129 454L257 462L386 409L514 472L643 410L771 467L900 401L900 601L771 601L643 601L514 601L386 601L257 601L129 601L0 601Z" fill="#253827"></path><path d="M0 458L129 477L257 462L386 454L514 446L643 490L771 449L900 486L900 601L771 601L643 601L514 601L386 601L257 601L129 601L0 601Z" fill="#244f2d"></path><path d="M0 508L129 494L257 484L386 534L514 491L643 510L771 489L900 518L900 601L771 601L643 601L514 601L386 601L257 601L129 601L0 601Z" fill="#1d6732"></path><path d="M0 551L129 551L257 540L386 572L514 571L643 552L771 545L900 572L900 601L771 601L643 601L514 601L386 601L257 601L129 601L0 601Z" fill="#008037"></path></svg>