<svg width="900" height="600" xmlns="http://www.w3.org/2000/svg" version="1.1">


 <g>
  <title>Layer 1</title>
  <rect id="svg_1" fill="#000000" height="600" width="900"/>
  <g id="svg_2">
   <path id="svg_3" fill="#008037" d="m900,405.6c-20.5,-21.9 -41,-43.9 -62.5,-51.1c-21.5,-7.2 -44.1,0.4 -66.1,-1.2c-22,-1.6 -43.5,-12.3 -58.4,-29.4c-14.9,-17.1 -23.1,-40.5 -39.3,-54.3c-16.1,-13.7 -40.3,-17.8 -61.7,-27.9c-21.5,-10.1 -40.3,-26.2 -51.5,-45.7c-11.2,-19.5 -14.9,-42.2 -25.1,-63.3c-10.2,-21.1 -26.9,-40.4 -34.9,-62.3c-7.9,-21.8 -7,-46.1 -6.1,-70.4l405.6,0l0,405.6z"/>
  </g>
  <g id="svg_4">
   <path id="svg_5" fill="#008037" d="m0,194.4c24.9,-2.6 49.8,-5.2 69.8,9.7c20,14.9 35,47.3 49.9,67c14.9,19.7 29.8,26.8 56.3,24.1c26.5,-2.8 64.5,-15.4 84.7,-5.9c20.2,9.4 22.6,40.9 34.2,63.2c11.6,22.4 32.5,35.6 35.1,57c2.5,21.4 -13.3,50.9 -2,71.1c11.2,20.3 49.5,31.4 66.9,49.8c17.5,18.3 14.1,44 10.7,69.6l-405.6,0l0,-405.6z"/>
  </g>
  <ellipse ry="70" rx="70" id="svg_8" cy="300" cx="450" fill="#008037"/>
 </g>
</svg>